# xmcd CD database file
#
# Track frame offsets:
#	150
#	20830
#	39112
#	60137
#	77732
#	99670
#	117757
#	135312
#	153410
#	173845
#	192387
#	213495
#
# Disc length: 3115 seconds
#
# Revision: 2
# Processed by: cddbd v1.5.2PL0 Copyright (c) Steve Scherf et al.
# Submitted via: CDex 1.70beta2
#
DISCID=930c290c
DTITLE=CHAGE and ASKA - INSIDE
DYEAR=1986
DGENRE=JPop
TTITLE0=東京CARRY ON
TTITLE1=シナリオ
TTITLE2=涙・BOY
TTITLE3=RAINBOW
TTITLE4=MOON LIGHT BLUES
TTITLE5=TIME KEEP DANCER
TTITLE6=アルマジロ・ブギ
TTITLE7=夢のかなた
TTITLE8=ゆら・ゆら
TTITLE9=B.G.M
TTITLE10=Darlin’
TTITLE11=華やかに傷ついて
EXTD=YEAR: 1986
EXTT0=
EXTT1=
EXTT2=
EXTT3=
EXTT4=
EXTT5=
EXTT6=
EXTT7=
EXTT8=
EXTT9=
EXTT10=
EXTT11=
PLAYORDER=
